<mxfile host="drawio-plugin" modified="2021-04-12T02:13:14.093Z" agent="5.0 (X11; Linux x86_64) AppleWebKit/537.36 (KHTML, like Gecko) Chrome/84.0.4147.105 Safari/537.36" etag="cPYhZKVXGulL60mxo_Ef" version="13.7.9" type="embed"><diagram id="OMpkGgc5Z82W3ZJ7nAs5" name="Page-1"><mxGraphModel dx="398" dy="306" grid="1" gridSize="10" guides="1" tooltips="1" connect="1" arrows="1" fold="1" page="1" pageScale="1" pageWidth="1200" pageHeight="800" math="0" shadow="0"><root><mxCell id="0"/><mxCell id="1" parent="0"/><mxCell id="45" value="&lt;font style=&quot;font-size: 24px&quot;&gt;Cognito&lt;/font&gt;" style="whiteSpace=wrap;html=1;aspect=fixed;fontFamily=IBM Plex Sans;fillColor=#e1d5e7;strokeColor=#9673a6;" vertex="1" parent="1"><mxGeometry x="760" y="40" width="320" height="320" as="geometry"/></mxCell><mxCell id="43" value="&lt;font style=&quot;font-size: 24px&quot;&gt;DynamoDB&lt;/font&gt;" style="whiteSpace=wrap;html=1;aspect=fixed;fillColor=#dae8fc;strokeColor=#6c8ebf;fontFamily=IBM Plex Sans;" vertex="1" parent="1"><mxGeometry x="760" y="400" width="320" height="320" as="geometry"/></mxCell><mxCell id="XIRrJ4vnFQSH43KvjEHD-19" value="&lt;font style=&quot;font-size: 24px&quot;&gt;Cloudwatch&lt;/font&gt;" style="rounded=0;whiteSpace=wrap;html=1;fillColor=#d5e8d4;strokeColor=#82b366;fontFamily=IBM Plex Sans;" parent="1" vertex="1"><mxGeometry x="40" y="40" width="320" height="320" as="geometry"/></mxCell><mxCell id="XIRrJ4vnFQSH43KvjEHD-20" value="&lt;font style=&quot;font-size: 24px&quot;&gt;API Gateway&lt;/font&gt;" style="rounded=0;whiteSpace=wrap;html=1;fillColor=#fff2cc;strokeColor=#d6b656;fontFamily=IBM Plex Sans;" parent="1" vertex="1"><mxGeometry x="400" y="400" width="320" height="320" as="geometry"/></mxCell><mxCell id="XIRrJ4vnFQSH43KvjEHD-18" value="&lt;font style=&quot;font-size: 24px&quot;&gt;S3&lt;/font&gt;" style="rounded=0;whiteSpace=wrap;html=1;fillColor=#f8cecc;strokeColor=#b85450;fontFamily=IBM Plex Sans;" parent="1" vertex="1"><mxGeometry x="400" y="40" width="320" height="320" as="geometry"/></mxCell><mxCell id="XIRrJ4vnFQSH43KvjEHD-22" value="" style="outlineConnect=0;dashed=0;verticalLabelPosition=bottom;verticalAlign=top;align=center;html=1;shape=mxgraph.aws3.api_gateway;fillColor=#D9A741;gradientColor=none;fontFamily=IBM Plex Sans;" parent="1" vertex="1"><mxGeometry x="603.5" y="586.5" width="76.5" height="93" as="geometry"/></mxCell><mxCell id="XIRrJ4vnFQSH43KvjEHD-23" value="" style="outlineConnect=0;dashed=0;verticalLabelPosition=bottom;verticalAlign=top;align=center;html=1;shape=mxgraph.aws3.s3;fillColor=#E05243;gradientColor=none;fontFamily=IBM Plex Sans;" parent="1" vertex="1"><mxGeometry x="603.5" y="80.5" width="76.5" height="93" as="geometry"/></mxCell><mxCell id="8" value="Website&lt;br&gt;(static)" style="outlineConnect=0;dashed=0;verticalLabelPosition=bottom;verticalAlign=top;align=center;html=1;shape=mxgraph.aws3.bucket;fillColor=#E05243;gradientColor=none;fontFamily=IBM Plex Sans;" parent="1" vertex="1"><mxGeometry x="640" y="261.5" width="50" height="51.5" as="geometry"/></mxCell><mxCell id="11" value="File Uploads" style="outlineConnect=0;dashed=0;verticalLabelPosition=bottom;verticalAlign=top;align=center;html=1;shape=mxgraph.aws3.bucket;fillColor=#E05243;gradientColor=none;fontFamily=IBM Plex Sans;" parent="1" vertex="1"><mxGeometry x="430" y="261.5" width="50" height="51.5" as="geometry"/></mxCell><mxCell id="54" style="edgeStyle=orthogonalEdgeStyle;rounded=0;orthogonalLoop=1;jettySize=auto;html=1;startArrow=none;startFill=0;endArrow=classic;endFill=1;strokeColor=#000000;fontFamily=IBM Plex Sans;" edge="1" parent="1" source="13"><mxGeometry relative="1" as="geometry"><mxPoint x="320" y="290" as="targetPoint"/><Array as="points"><mxPoint x="380" y="430"/><mxPoint x="380" y="290"/></Array></mxGeometry></mxCell><mxCell id="13" value="Presign Endpoint" style="outlineConnect=0;fontColor=#232F3E;gradientColor=none;fillColor=#5A30B5;strokeColor=none;dashed=0;verticalLabelPosition=bottom;verticalAlign=top;align=center;html=1;fontSize=12;fontStyle=0;aspect=fixed;pointerEvents=1;shape=mxgraph.aws4.endpoint;fontFamily=IBM Plex Sans;" parent="1" vertex="1"><mxGeometry x="425" y="421.5" width="55" height="55" as="geometry"/></mxCell><mxCell id="XIRrJ4vnFQSH43KvjEHD-17" value="&lt;font style=&quot;font-size: 24px&quot;&gt;Lambda&lt;/font&gt;" style="rounded=0;whiteSpace=wrap;html=1;fillColor=#ffe6cc;strokeColor=#d79b00;fontFamily=IBM Plex Sans;" parent="1" vertex="1"><mxGeometry x="40" y="400" width="320" height="320" as="geometry"/></mxCell><mxCell id="XIRrJ4vnFQSH43KvjEHD-24" value="" style="outlineConnect=0;dashed=0;verticalLabelPosition=bottom;verticalAlign=top;align=center;html=1;shape=mxgraph.aws3.lambda;fillColor=#F58534;gradientColor=none;fontFamily=IBM Plex Sans;" parent="1" vertex="1"><mxGeometry x="80" y="586.5" width="76.5" height="93" as="geometry"/></mxCell><mxCell id="30" style="edgeStyle=orthogonalEdgeStyle;rounded=0;orthogonalLoop=1;jettySize=auto;html=1;fontFamily=IBM Plex Sans;" parent="1" source="3" target="25" edge="1"><mxGeometry relative="1" as="geometry"><Array as="points"><mxPoint x="160" y="449"/><mxPoint x="160" y="292"/></Array></mxGeometry></mxCell><mxCell id="3" value="URL Presigner" style="outlineConnect=0;fontColor=#232F3E;gradientColor=none;fillColor=#D05C17;strokeColor=none;dashed=0;verticalLabelPosition=bottom;verticalAlign=top;align=center;html=1;fontSize=12;fontStyle=0;aspect=fixed;pointerEvents=1;shape=mxgraph.aws4.lambda_function;fontFamily=IBM Plex Sans;" parent="1" vertex="1"><mxGeometry x="270" y="420" width="58" height="58" as="geometry"/></mxCell><mxCell id="29" style="edgeStyle=orthogonalEdgeStyle;rounded=0;orthogonalLoop=1;jettySize=auto;html=1;fontFamily=IBM Plex Sans;" parent="1" source="4" target="27" edge="1"><mxGeometry relative="1" as="geometry"><Array as="points"><mxPoint x="70" y="541"/><mxPoint x="70" y="292"/></Array></mxGeometry></mxCell><mxCell id="40" style="edgeStyle=orthogonalEdgeStyle;rounded=0;orthogonalLoop=1;jettySize=auto;html=1;fontFamily=IBM Plex Sans;" parent="1" source="4" target="33" edge="1"><mxGeometry relative="1" as="geometry"/></mxCell><mxCell id="4" value="Convex Hull" style="outlineConnect=0;fontColor=#232F3E;gradientColor=none;fillColor=#D05C17;strokeColor=none;dashed=0;verticalLabelPosition=bottom;verticalAlign=top;align=center;html=1;fontSize=12;fontStyle=0;aspect=fixed;pointerEvents=1;shape=mxgraph.aws4.lambda_function;fontFamily=IBM Plex Sans;" parent="1" vertex="1"><mxGeometry x="270" y="512" width="58" height="58" as="geometry"/></mxCell><mxCell id="XIRrJ4vnFQSH43KvjEHD-21" value="" style="outlineConnect=0;dashed=0;verticalLabelPosition=bottom;verticalAlign=top;align=center;html=1;shape=mxgraph.aws3.cloudwatch;fillColor=#759C3E;gradientColor=none;fontFamily=IBM Plex Sans;" parent="1" vertex="1"><mxGeometry x="80" y="80.5" width="82.5" height="93" as="geometry"/></mxCell><mxCell id="19" value="" style="endArrow=classic;startArrow=classic;html=1;fontFamily=IBM Plex Sans;" parent="1" source="13" target="8" edge="1"><mxGeometry width="50" height="50" relative="1" as="geometry"><mxPoint x="670" y="430" as="sourcePoint"/><mxPoint x="590" y="350" as="targetPoint"/></mxGeometry></mxCell><mxCell id="20" value="" style="endArrow=classic;startArrow=classic;html=1;fontFamily=IBM Plex Sans;" parent="1" source="3" target="13" edge="1"><mxGeometry width="50" height="50" relative="1" as="geometry"><mxPoint x="670" y="430" as="sourcePoint"/><mxPoint x="720" y="380" as="targetPoint"/></mxGeometry></mxCell><mxCell id="22" value="P" style="endArrow=classic;html=1;fontFamily=IBM Plex Sans;startArrow=classic;startFill=1;" parent="1" source="8" target="11" edge="1"><mxGeometry relative="1" as="geometry"><mxPoint x="590" y="312.5" as="sourcePoint"/><mxPoint x="440" y="210" as="targetPoint"/></mxGeometry></mxCell><mxCell id="23" value="Presigned URLs&lt;br&gt;(PUT/GET)" style="edgeLabel;resizable=0;html=1;align=center;verticalAlign=middle;fontFamily=IBM Plex Sans;" parent="22" connectable="0" vertex="1"><mxGeometry relative="1" as="geometry"/></mxCell><mxCell id="24" value="API logs" style="outlineConnect=0;fontColor=#232F3E;gradientColor=none;fillColor=#D86613;strokeColor=none;dashed=0;verticalLabelPosition=bottom;verticalAlign=top;align=center;html=1;fontSize=12;fontStyle=0;aspect=fixed;pointerEvents=1;shape=mxgraph.aws4.instance_with_cloudwatch2;fontFamily=IBM Plex Sans;" parent="1" vertex="1"><mxGeometry x="259" y="261.5" width="60" height="60" as="geometry"/></mxCell><mxCell id="25" value="Presign logs" style="outlineConnect=0;fontColor=#232F3E;gradientColor=none;fillColor=#D86613;strokeColor=none;dashed=0;verticalLabelPosition=bottom;verticalAlign=top;align=center;html=1;fontSize=12;fontStyle=0;aspect=fixed;pointerEvents=1;shape=mxgraph.aws4.instance_with_cloudwatch2;fontFamily=IBM Plex Sans;" parent="1" vertex="1"><mxGeometry x="180" y="263.5" width="58" height="58" as="geometry"/></mxCell><mxCell id="27" value="CH logs" style="outlineConnect=0;fontColor=#232F3E;gradientColor=none;fillColor=#D86613;strokeColor=none;dashed=0;verticalLabelPosition=bottom;verticalAlign=top;align=center;html=1;fontSize=12;fontStyle=0;aspect=fixed;pointerEvents=1;shape=mxgraph.aws4.instance_with_cloudwatch2;fontFamily=IBM Plex Sans;" parent="1" vertex="1"><mxGeometry x="89.25" y="263.5" width="58" height="58" as="geometry"/></mxCell><mxCell id="53" style="edgeStyle=orthogonalEdgeStyle;rounded=0;orthogonalLoop=1;jettySize=auto;html=1;startArrow=none;startFill=0;endArrow=classic;endFill=1;strokeColor=#000000;fontFamily=IBM Plex Sans;" edge="1" parent="1" source="33"><mxGeometry relative="1" as="geometry"><mxPoint x="320" y="290" as="targetPoint"/><Array as="points"><mxPoint x="380" y="520"/><mxPoint x="380" y="290"/></Array></mxGeometry></mxCell><mxCell id="33" value="CH Endpoint" style="outlineConnect=0;fontColor=#232F3E;gradientColor=none;fillColor=#5A30B5;strokeColor=none;dashed=0;verticalLabelPosition=bottom;verticalAlign=top;align=center;html=1;fontSize=12;fontStyle=0;aspect=fixed;pointerEvents=1;shape=mxgraph.aws4.endpoint;fontFamily=IBM Plex Sans;" parent="1" vertex="1"><mxGeometry x="425" y="513.5" width="55" height="55" as="geometry"/></mxCell><mxCell id="37" value="" style="endArrow=classic;startArrow=classic;html=1;fontFamily=IBM Plex Sans;" parent="1" source="33" target="8" edge="1"><mxGeometry width="50" height="50" relative="1" as="geometry"><mxPoint x="410" y="440" as="sourcePoint"/><mxPoint x="460" y="390" as="targetPoint"/><Array as="points"><mxPoint x="520" y="500"/><mxPoint x="570" y="390"/></Array></mxGeometry></mxCell><mxCell id="42" value="" style="outlineConnect=0;dashed=0;verticalLabelPosition=bottom;verticalAlign=top;align=center;html=1;shape=mxgraph.aws3.dynamo_db;fillColor=#2E73B8;gradientColor=none;fontFamily=IBM Plex Sans;" vertex="1" parent="1"><mxGeometry x="970" y="586.5" width="72" height="81" as="geometry"/></mxCell><mxCell id="44" value="" style="outlineConnect=0;dashed=0;verticalLabelPosition=bottom;verticalAlign=top;align=center;html=1;shape=mxgraph.aws3.cognito;fillColor=#AD688B;gradientColor=none;fontFamily=IBM Plex Sans;" vertex="1" parent="1"><mxGeometry x="960" y="80.5" width="76.5" height="93" as="geometry"/></mxCell><mxCell id="52" style="edgeStyle=orthogonalEdgeStyle;rounded=0;orthogonalLoop=1;jettySize=auto;html=1;startArrow=none;startFill=0;endArrow=classic;endFill=1;strokeColor=#000000;fontFamily=IBM Plex Sans;" edge="1" parent="1" source="48"><mxGeometry relative="1" as="geometry"><mxPoint x="320" y="290" as="targetPoint"/><Array as="points"><mxPoint x="380" y="620"/><mxPoint x="380" y="290"/></Array></mxGeometry></mxCell><mxCell id="58" style="edgeStyle=orthogonalEdgeStyle;rounded=0;orthogonalLoop=1;jettySize=auto;html=1;startArrow=classic;startFill=1;endArrow=classic;endFill=1;strokeColor=#000000;fontFamily=IBM Plex Sans;" edge="1" parent="1" source="48" target="57"><mxGeometry relative="1" as="geometry"/></mxCell><mxCell id="48" value="Users Endpoint" style="outlineConnect=0;fontColor=#232F3E;gradientColor=none;fillColor=#5A30B5;strokeColor=none;dashed=0;verticalLabelPosition=bottom;verticalAlign=top;align=center;html=1;fontSize=12;fontStyle=0;aspect=fixed;pointerEvents=1;shape=mxgraph.aws4.endpoint;fontFamily=IBM Plex Sans;" vertex="1" parent="1"><mxGeometry x="425" y="605.5" width="55" height="55" as="geometry"/></mxCell><mxCell id="49" value="Users logs" style="outlineConnect=0;fontColor=#232F3E;gradientColor=none;fillColor=#D86613;strokeColor=none;dashed=0;verticalLabelPosition=bottom;verticalAlign=top;align=center;html=1;fontSize=12;fontStyle=0;aspect=fixed;pointerEvents=1;shape=mxgraph.aws4.instance_with_cloudwatch2;fontFamily=IBM Plex Sans;" vertex="1" parent="1"><mxGeometry x="270" y="80.5" width="58" height="58" as="geometry"/></mxCell><mxCell id="56" value="" style="endArrow=classic;html=1;strokeColor=#000000;fontFamily=IBM Plex Sans;entryX=0.06;entryY=0.5;entryDx=0;entryDy=0;entryPerimeter=0;startArrow=classic;startFill=1;" edge="1" parent="1" source="4" target="11"><mxGeometry width="50" height="50" relative="1" as="geometry"><mxPoint x="430" y="400" as="sourcePoint"/><mxPoint x="480" y="350" as="targetPoint"/><Array as="points"><mxPoint x="340" y="510"/><mxPoint x="410" y="300"/></Array></mxGeometry></mxCell><mxCell id="57" value="Users Endpoint" style="outlineConnect=0;fontColor=#232F3E;gradientColor=none;fillColor=#D05C17;strokeColor=none;dashed=0;verticalLabelPosition=bottom;verticalAlign=top;align=center;html=1;fontSize=12;fontStyle=0;aspect=fixed;pointerEvents=1;shape=mxgraph.aws4.lambda_function;fontFamily=IBM Plex Sans;" vertex="1" parent="1"><mxGeometry x="270" y="604" width="58" height="58" as="geometry"/></mxCell><mxCell id="59" value="Users DB (???)" style="html=1;verticalLabelPosition=bottom;align=center;labelBackgroundColor=#ffffff;verticalAlign=top;strokeWidth=2;strokeColor=#0080F0;shadow=0;dashed=0;shape=mxgraph.ios7.icons.data;fontFamily=IBM Plex Sans;" vertex="1" parent="1"><mxGeometry x="790" y="603.45" width="50" height="59.1" as="geometry"/></mxCell><mxCell id="61" style="edgeStyle=orthogonalEdgeStyle;rounded=0;orthogonalLoop=1;jettySize=auto;html=1;entryX=0.94;entryY=0.5;entryDx=0;entryDy=0;entryPerimeter=0;startArrow=classic;startFill=1;endArrow=classic;endFill=1;strokeColor=#000000;fontFamily=IBM Plex Sans;" edge="1" parent="1" source="60" target="8"><mxGeometry relative="1" as="geometry"><Array as="points"><mxPoint x="740" y="376"/><mxPoint x="740" y="287"/></Array></mxGeometry></mxCell><mxCell id="60" value="Public&lt;br&gt;Internet" style="outlineConnect=0;dashed=0;verticalLabelPosition=bottom;verticalAlign=top;align=center;html=1;shape=mxgraph.aws3.internet_gateway;fillColor=#F58534;gradientColor=none;fontFamily=IBM Plex Sans;" vertex="1" parent="1"><mxGeometry x="1110" y="340" width="69" height="72" as="geometry"/></mxCell><mxCell id="63" value="Users (???)" style="html=1;verticalLabelPosition=bottom;align=center;labelBackgroundColor=#ffffff;verticalAlign=top;strokeWidth=2;strokeColor=#0080F0;shadow=0;dashed=0;shape=mxgraph.ios7.icons.user;fontFamily=IBM Plex Sans;" vertex="1" parent="1"><mxGeometry x="810" y="259.37" width="50" height="53.63" as="geometry"/></mxCell><mxCell id="66" style="edgeStyle=orthogonalEdgeStyle;rounded=0;orthogonalLoop=1;jettySize=auto;html=1;startArrow=none;startFill=0;endArrow=classic;endFill=1;strokeColor=#000000;fontFamily=IBM Plex Sans;" edge="1" parent="1" source="57" target="49"><mxGeometry relative="1" as="geometry"><mxPoint x="270" y="633" as="sourcePoint"/><mxPoint x="270" y="109.5" as="targetPoint"/><Array as="points"><mxPoint x="250" y="633"/><mxPoint x="250" y="110"/></Array></mxGeometry></mxCell></root></mxGraphModel></diagram></mxfile>